<svg xmlns="http://www.w3.org/2000/svg" width="1160" height="640" viewBox="0 0 1160 640" role="img" aria-labelledby="title desc">
  <title id="title">a_23_basic_dashboard preview</title>
  <desc id="desc">Preview card for the basic dashboard Streamlit app.</desc>
  <defs>
    <linearGradient id="surface" x1="0" y1="0" x2="0" y2="1">
      <stop offset="0%" stop-color="#121b2f"/>
      <stop offset="100%" stop-color="#0a1326"/>
    </linearGradient>
  </defs>
  <g transform="translate(24,24)">
    <rect width="1112" height="592" rx="26" fill="url(#surface)" stroke="#06b6d4" stroke-opacity="0.45" stroke-width="2"/>

    <rect x="28" y="24" width="1056" height="44" rx="12" fill="#0f1d37"/>
    <circle cx="54" cy="46" r="6" fill="#ef4444"/>
    <circle cx="76" cy="46" r="6" fill="#f59e0b"/>
    <circle cx="98" cy="46" r="6" fill="#22c55e"/>
    <rect x="130" y="32" width="460" height="28" rx="8" fill="#1d355f"/>

    <text x="48" y="130" fill="#67e8f9" font-family="Segoe UI, Roboto, Arial, sans-serif" font-size="28" font-weight="700">a_23_basic_dashboard</text>
    <text x="48" y="182" fill="#e2e8f0" font-family="Segoe UI, Roboto, Arial, sans-serif" font-size="42" font-weight="700">Basic Dashboard</text>
    <text x="48" y="226" fill="#cbd5e1" font-family="Segoe UI, Roboto, Arial, sans-serif" font-size="26">Table filters, KPI cards, and salary controls.</text>

    <rect x="48" y="266" width="350" height="62" rx="12" fill="#0891b2"/>
    <text x="80" y="306" fill="#ffffff" font-family="Segoe UI, Roboto, Arial, sans-serif" font-size="27" font-weight="700">Open Live App</text>

    <g transform="translate(590,134)">
      <rect width="468" height="370" rx="18" fill="#0b162b" stroke="#334155" stroke-width="2"/>
      <rect x="24" y="22" width="138" height="16" rx="8" fill="#334155"/>
      <rect x="24" y="52" width="420" height="12" rx="6" fill="#223452"/>
      <rect x="24" y="74" width="360" height="12" rx="6" fill="#223452"/>

      <rect x="24" y="112" width="132" height="102" rx="12" fill="#22d3ee" fill-opacity="0.24"/>
      <rect x="168" y="112" width="132" height="102" rx="12" fill="#22d3ee" fill-opacity="0.18"/>
      <rect x="312" y="112" width="132" height="102" rx="12" fill="#22c55e" fill-opacity="0.20"/>

      <rect x="24" y="236" width="420" height="112" rx="12" fill="#111f38"/>
      <rect x="44" y="258" width="380" height="10" rx="5" fill="#385a85"/>
      <rect x="44" y="278" width="338" height="10" rx="5" fill="#385a85"/>
      <rect x="44" y="298" width="360" height="10" rx="5" fill="#385a85"/>
      <rect x="44" y="318" width="296" height="10" rx="5" fill="#385a85"/>
    </g>

    <text x="48" y="550" fill="#67e8f9" font-family="ui-monospace, SFMono-Regular, Menlo, Consolas, monospace" font-size="20">https://basic-dashboard-c.streamlit.app/</text>
  </g>
</svg>
