<svg xmlns="http://www.w3.org/2000/svg" width="1280" height="720" viewBox="0 0 1280 720" role="img" aria-labelledby="title desc">
  <title id="title">a_29 face recognition surveillance preview</title>
  <desc id="desc">Surveillance preview emphasizing face detection labels and people registry identity tracking.</desc>

  <defs>
    <linearGradient id="plate" x1="0" y1="0" x2="0" y2="1">
      <stop offset="0%" stop-color="#0f1b34"/>
      <stop offset="100%" stop-color="#071120"/>
    </linearGradient>
    <linearGradient id="feed" x1="0" y1="0" x2="1" y2="1">
      <stop offset="0%" stop-color="#233452"/>
      <stop offset="55%" stop-color="#334b6f"/>
      <stop offset="100%" stop-color="#5d7088"/>
    </linearGradient>
    <linearGradient id="panel" x1="0" y1="0" x2="0" y2="1">
      <stop offset="0%" stop-color="#101d34"/>
      <stop offset="100%" stop-color="#0a1629"/>
    </linearGradient>
  </defs>

  <rect x="16" y="16" width="1248" height="688" rx="24" fill="url(#plate)" stroke="#22d3ee" stroke-opacity="0.58" stroke-width="2"/>

  <text x="48" y="90" fill="#67e8f9" font-family="Segoe UI, Roboto, Arial, sans-serif" font-size="42" font-weight="700">a_29_face_recognition</text>
  
  

  <g transform="translate(40,132)">
    <rect width="900" height="472" rx="16" fill="#0b1630" stroke="#22d3ee" stroke-opacity="0.45" stroke-width="2"/>
    <rect x="18" y="18" width="864" height="396" rx="12" fill="url(#feed)"/>

    <rect x="18" y="426" width="864" height="32" rx="8" fill="#07111f"/>
    <text x="28" y="448" fill="#dbe7f5" font-family="ui-monospace, SFMono-Regular, Menlo, Consolas, monospace" font-size="11">FPS:19.1  Faces:4  Persons:4  Known:4  Unknown:0</text>

    <rect x="36" y="34" width="170" height="32" rx="10" fill="#0d2a40" stroke="#22c55e" stroke-opacity="0.85"/>
    <text x="50" y="56" fill="#86efac" font-family="Segoe UI, Roboto, Arial, sans-serif" font-size="15" font-weight="700">FACE DETECTION</text>
    <rect x="220" y="34" width="190" height="32" rx="10" fill="#0d2a40" stroke="#f59e0b" stroke-opacity="0.85"/>
    <text x="234" y="56" fill="#fbbf24" font-family="Segoe UI, Roboto, Arial, sans-serif" font-size="15" font-weight="700">PERSON CONTAINER</text>

    <g>
      <rect x="44" y="120" width="176" height="184" rx="8" fill="none" stroke="#f59e0b" stroke-width="3"/>
      <rect x="70" y="144" width="72" height="84" rx="8" fill="none" stroke="#22c55e" stroke-width="4"/>
      <rect x="70" y="108" width="164" height="28" rx="8" fill="#0a3a26" stroke="#22c55e"/>
      <text x="80" y="126" fill="#4ade80" font-family="Segoe UI, Roboto, Arial, sans-serif" font-size="15" font-weight="700">FACE: Female 2  0.96</text>
    </g>

    <g>
      <rect x="308" y="122" width="186" height="196" rx="8" fill="none" stroke="#f59e0b" stroke-width="3"/>
      <rect x="346" y="154" width="76" height="86" rx="8" fill="none" stroke="#22c55e" stroke-width="4"/>
      <rect x="346" y="110" width="150" height="28" rx="8" fill="#0a3a26" stroke="#22c55e"/>
      <text x="356" y="128" fill="#4ade80" font-family="Segoe UI, Roboto, Arial, sans-serif" font-size="15" font-weight="700">FACE: Male 1  0.98</text>
    </g>

    <g>
      <rect x="500" y="124" width="168" height="210" rx="8" fill="none" stroke="#f59e0b" stroke-width="3"/>
      <rect x="542" y="154" width="72" height="82" rx="8" fill="none" stroke="#22c55e" stroke-width="4"/>
      <rect x="542" y="112" width="160" height="28" rx="8" fill="#0a3a26" stroke="#22c55e"/>
      <text x="552" y="130" fill="#4ade80" font-family="Segoe UI, Roboto, Arial, sans-serif" font-size="15" font-weight="700">FACE: Female 1  0.99</text>
    </g>

    <g>
      <rect x="596" y="42" width="188" height="356" rx="8" fill="none" stroke="#f59e0b" stroke-width="3"/>
      <rect x="618" y="76" width="72" height="80" rx="8" fill="none" stroke="#22c55e" stroke-width="4"/>
      <rect x="618" y="46" width="160" height="28" rx="8" fill="#0a3a26" stroke="#22c55e"/>
      <text x="628" y="64" fill="#4ade80" font-family="Segoe UI, Roboto, Arial, sans-serif" font-size="15" font-weight="700">FACE: Female 3  0.99</text>
    </g>
  </g>

  <g transform="translate(960,132)">
    <rect width="288" height="472" rx="16" fill="url(#panel)" stroke="#22d3ee" stroke-opacity="0.42" stroke-width="2"/>

    <text x="20" y="42" fill="#dbe7f5" font-family="Segoe UI, Roboto, Arial, sans-serif" font-size="22" font-weight="700">People Registry</text>
    <text x="20" y="70" fill="#94a7c8" font-family="Segoe UI, Roboto, Arial, sans-serif" font-size="12">Matched identities in current session</text>
    <rect x="16" y="88" width="256" height="1" fill="#2f4364"/>

    <g font-family="Segoe UI, Roboto, Arial, sans-serif" font-size="14" font-weight="600">
      <rect x="18" y="106" width="252" height="54" rx="8" fill="#0f2745"/>
      <text x="30" y="139" fill="#93c5fd">Female 1</text>
      <text x="262" y="139" text-anchor="end" fill="#22c55e">1 sample</text>

      <rect x="18" y="168" width="252" height="54" rx="8" fill="#0f2745"/>
      <text x="30" y="201" fill="#93c5fd">Female 2</text>
      <text x="262" y="201" text-anchor="end" fill="#22c55e">1 sample</text>

      <rect x="18" y="230" width="252" height="54" rx="8" fill="#0f2745"/>
      <text x="30" y="263" fill="#93c5fd">Female 3</text>
      <text x="262" y="263" text-anchor="end" fill="#22c55e">1 sample</text>

      <rect x="18" y="292" width="252" height="54" rx="8" fill="#13314f" stroke="#38bdf8" stroke-opacity="0.55"/>
      <text x="30" y="325" fill="#7dd3fc">Male 1</text>
      <text x="262" y="325" text-anchor="end" fill="#22c55e">1 sample</text>
    </g>

    <text x="20" y="390" fill="#f8fafc" font-family="Segoe UI, Roboto, Arial, sans-serif" font-size="14" font-weight="700">Face Match Threshold</text>
    <rect x="20" y="404" width="252" height="10" rx="5" fill="#2b3f62"/>
    <rect x="20" y="404" width="190" height="10" rx="5" fill="#22d3ee"/>
    <text x="262" y="430" text-anchor="end" fill="#67e8f9" font-family="ui-monospace, SFMono-Regular, Menlo, Consolas, monospace" font-size="14">0.75</text>

    <rect x="20" y="440" width="252" height="20" rx="6" fill="#0f2b45"/>
    <text x="28" y="454" fill="#4ade80" font-family="ui-monospace, SFMono-Regular, Menlo, Consolas, monospace" font-size="8">MATCH MODE: Face label stability enabled</text>
  </g>
</svg>
