<svg width="1280" height="720" viewBox="0 0 1280 720" fill="none" xmlns="http://www.w3.org/2000/svg">
  <defs>
    <linearGradient id="bg" x1="0" y1="0" x2="1280" y2="720" gradientUnits="userSpaceOnUse">
      <stop offset="0" stop-color="#0B1429"/>
      <stop offset="1" stop-color="#0A1E3F"/>
    </linearGradient>
    <linearGradient id="panel" x1="0" y1="0" x2="1" y2="1">
      <stop offset="0" stop-color="#12264A" stop-opacity="0.9"/>
      <stop offset="1" stop-color="#0D1B36" stop-opacity="0.9"/>
    </linearGradient>
  </defs>

  <rect x="20" y="20" width="1240" height="680" rx="24" fill="url(#bg)"/>
  <rect x="20" y="20" width="1240" height="680" rx="24" fill="none" stroke="#09D3F6" stroke-opacity="0.85" stroke-width="2"/>

  <text x="56" y="94" fill="#6FE8FF" font-family="Segoe UI, Arial, sans-serif" font-size="52" font-weight="700">a_35_0_spam_ham</text>
  <text x="56" y="142" fill="#E3EEFF" font-family="Segoe UI, Arial, sans-serif" font-size="28" font-weight="600">Automated Test Report Snapshot</text>
  <text x="56" y="178" fill="#A8B7D3" font-family="Segoe UI, Arial, sans-serif" font-size="22">Holdout: TF-IDF wins • Custom: Static-v2 wins</text>

  <rect x="56" y="214" width="564" height="420" rx="20" fill="url(#panel)" stroke="#2A4C82"/>
  <text x="88" y="258" fill="#D7E6FF" font-family="Segoe UI, Arial, sans-serif" font-size="30" font-weight="700">Real Holdout (5,574 rows)</text>

  <text x="88" y="310" fill="#7FD2FF" font-family="Segoe UI, Arial, sans-serif" font-size="24" font-weight="600">TF-IDF + NB</text>
  <text x="588" y="310" fill="#DDF2FF" font-family="Segoe UI, Arial, sans-serif" font-size="22" text-anchor="end">Acc 97.49% • F1 89.63%</text>
  <rect x="88" y="328" width="500" height="20" rx="10" fill="#1A3057"/>
  <rect x="88" y="328" width="449" height="20" rx="10" fill="#33C3FF"/>

  <text x="88" y="396" fill="#8EF1C7" font-family="Segoe UI, Arial, sans-serif" font-size="24" font-weight="600">Static-v2 + LogReg</text>
  <text x="588" y="396" fill="#DDF2FF" font-family="Segoe UI, Arial, sans-serif" font-size="22" text-anchor="end">Acc 95.87% • F1 84.35%</text>
  <rect x="88" y="414" width="500" height="20" rx="10" fill="#1A3057"/>
  <rect x="88" y="414" width="422" height="20" rx="10" fill="#34D399"/>

  <text x="88" y="507" fill="#C8E5FF" font-family="Segoe UI, Arial, sans-serif" font-size="24" font-weight="600">Winner: <tspan fill="#4ED6FF" font-weight="700">TF-IDF + NB</tspan></text>

  <rect x="660" y="214" width="564" height="420" rx="20" fill="url(#panel)" stroke="#2A4C82"/>
  <text x="692" y="258" fill="#D7E6FF" font-family="Segoe UI, Arial, sans-serif" font-size="30" font-weight="700">Custom Set (24 rows)</text>

  <text x="692" y="310" fill="#7FD2FF" font-family="Segoe UI, Arial, sans-serif" font-size="24" font-weight="600">TF-IDF + NB</text>
  <text x="1192" y="310" fill="#DDF2FF" font-family="Segoe UI, Arial, sans-serif" font-size="22" text-anchor="end">Acc 70.83% • F1 58.82%</text>
  <rect x="692" y="328" width="500" height="20" rx="10" fill="#1A3057"/>
  <rect x="692" y="328" width="294" height="20" rx="10" fill="#33C3FF"/>

  <text x="692" y="396" fill="#8EF1C7" font-family="Segoe UI, Arial, sans-serif" font-size="24" font-weight="600">Static-v2 + LogReg</text>
  <text x="1192" y="396" fill="#DDF2FF" font-family="Segoe UI, Arial, sans-serif" font-size="22" text-anchor="end">Acc 87.50% • F1 86.96%</text>
  <rect x="692" y="414" width="500" height="20" rx="10" fill="#1A3057"/>
  <rect x="692" y="414" width="435" height="20" rx="10" fill="#34D399"/>

  <text x="692" y="507" fill="#C8E5FF" font-family="Segoe UI, Arial, sans-serif" font-size="24" font-weight="600">Winner: <tspan fill="#86F6C5" font-weight="700">Static-v2 + LogReg</tspan></text>

  <text x="56" y="676" fill="#7FA0C9" font-family="Segoe UI, Arial, sans-serif" font-size="20">Source: assignments/hw_adv/a_35_0_spam_ham/automated_test_report.md (Generated UTC: 2026-02-15 19:51:01)</text>
</svg>
